<?xml version="1.0" encoding="UTF-8"?>
<svg viewBox="0 0 16 12" xmlns="http://www.w3.org/2000/svg">
 <defs>
  <radialGradient id="a" cx="97.482" cy="265.86" r="3" gradientTransform="matrix(2.5716 1.2508 -.98378 2.0227 299.83 -375.37)" gradientUnits="userSpaceOnUse">
   <stop stop-color="#797979" offset="0"/>
   <stop stop-color="#cbcbcb" offset="1"/>
  </radialGradient>
 </defs>
 <g transform="translate(-278.95 -276.31)" fill-rule="evenodd">
  <path d="m281.49 280.82 6-3 6 3-6 3-6-3z" fill="#888"/>
  <path d="m281.49 280.82v3l6 3v-3l-6-3z" fill="#888"/>
  <path d="m282.25,281.65625v.40625 1 .15625l.125.0625 1,.5 .03125.03125h.03125l1.34375.21875 .5.6875 .03125.03125 .0625.03125 1,.5 .375.1875v-.40625-1-.15625l-.15625-.0625-.90625-.4375-.03125-.03125-.86734-.84074-1.25766-.22176-.9375-.46875-.34375-.1875zm.5.8125 .625.3125 .03125.03125h.03125l1.375.21875 .46875.6875 .03125.03125 .0625.03125 .875.4375v.46875l-.5625-.28125-.03125-.03125-.53125-.71875-.0625-.0625-.09375-.03125-1.4375-.25-.78125-.375v-.46875z"/>
  <path d="m293.49 280.82v3l-6 3v-3l6-3z" fill="url(#a)"/>
  <path d="m287.5,277.25-.25.125-6,3-.25.125v.3125 3 .3125l.25.125 6,3 .25.125 .21875-.125 6-3 .28125-.125v-.3125-3-.3125l-.28125-.125-6-3-.21875-.125zm0,1.125 5.5,2.75v2.375l-5.5,2.75-5.5-2.75v-2.375l5.5-2.75z"/>
  <path d="m282.5,282.125-.125.03125-2,.90625-.46875.21875 .46875.21875 4,2.0625 .125.0625 .09375-.0625 2-.96875 .46875-.25-.46875-.21875-.90625-.40625-2.15625-1.09375-.9375-.4375-.09375-.0625zm-.03125.5625 .90625.4375 .0625.03125 .0625-.03125 1.3125-.0625 .4375.90625 .0625.09375 .0625.03125 .53125.28125-1.40625.6875-3.4375-1.75 1.40625-.625z"/>
  <path d="m282.54 282.39-2 0.88388 4 2.0519 2-0.97858-1-0.48929-0.65288-0.84374-1.3471-0.13485-1-0.48929z" fill="#fff"/>
  <path d="m280.49 283.31 2-0.97859 1.5716 0.51627-2 1-1.5716-0.53768z" fill="#676767"/>
  <path d="m282.5,282.125-.125.03125-2,.90625-.46875.21875 .46875.21875 4,2.0625 .125.0625 .09375-.0625 2-.96875 .46875-.25-.46875-.21875-.90625-.40625-.88653-1.01264-1.26972-.08111-.9375-.4375-.09375-.0625zm-.03125.5625 .90625.4375 .0625.03125 .0625-.03125 1.3125-.0625 .4375.90625 .0625.09375 .0625.03125 .53125.28125-1.40625.6875-3.4375-1.75 1.40625-.625z"/>
 </g>
</svg>
